<?xml version="1.0" encoding="UTF-8" standalone="no"?>
<!-- Created with Inkscape (http://www.inkscape.org/) -->

<svg
   width="1280"
   height="1276.2162"
   viewBox="0 0 338.66666 337.66553"
   version="1.1"
   id="svg1"
   inkscape:version="1.4 (86a8ad7, 2024-10-11)"
   sodipodi:docname="Logo-Inverted.svg"
   inkscape:export-filename="Logo.png"
   inkscape:export-xdpi="96"
   inkscape:export-ydpi="96"
   xmlns:inkscape="http://www.inkscape.org/namespaces/inkscape"
   xmlns:sodipodi="http://sodipodi.sourceforge.net/DTD/sodipodi-0.dtd"
   xmlns="http://www.w3.org/2000/svg"
   xmlns:svg="http://www.w3.org/2000/svg">
  <sodipodi:namedview
     id="namedview1"
     pagecolor="#ffffff"
     bordercolor="#000000"
     borderopacity="0.25"
     inkscape:showpageshadow="2"
     inkscape:pageopacity="0.0"
     inkscape:pagecheckerboard="0"
     inkscape:deskcolor="#d1d1d1"
     inkscape:document-units="px"
     showborder="false"
     inkscape:zoom="0.5"
     inkscape:cx="618"
     inkscape:cy="384"
     inkscape:window-width="2560"
     inkscape:window-height="1369"
     inkscape:window-x="2552"
     inkscape:window-y="-8"
     inkscape:window-maximized="1"
     inkscape:current-layer="layer1" />
  <defs
     id="defs1" />
  <g
     inkscape:label="Layer 1"
     inkscape:groupmode="layer"
     id="layer1"
     transform="translate(-12.105534,28.653805)">
    <path
       id="rect4"
       style="opacity:1;stroke-width:0.264583;stroke-linecap:round;stroke-linejoin:round;paint-order:markers fill stroke;fill:#001018;fill-opacity:1"
       d="M 12.105534,-28.653805 H 350.77219 V 309.01172 H 12.105534 Z" />
    <path
       id="path217"
       style="fill:#ffffff;fill-opacity:1;stroke-width:4.64439;paint-order:markers fill stroke"
       d="m 181.44331,109.35154 -44.56528,4.82345 c 1.73592,2.15735 3.47315,4.31379 5.21037,6.47114 l 39.35491,-4.26006 140.64998,15.22511 c -0.14379,-2.38467 -0.33986,-4.75339 -0.61437,-7.10459 z m -65.1754,7.05335 -74.862823,8.1017 c -0.274506,2.3512 -0.457509,4.72005 -0.601298,7.10459 l 80.692791,-8.73528 c -1.73853,-2.15761 -3.48099,-4.31274 -5.21952,-6.47101 z" />
    <path
       id="path349"
       style="fill:#ffffff;fill-opacity:1;stroke-width:4.64439;paint-order:markers fill stroke"
       d="m 269.12161,30.282775 -109.48448,88.097505 -28.10411,34.92871 c 2.75159,0.29804 5.50448,0.59607 8.25738,0.89411 l 24.82182,-30.84786 109.98381,-88.498945 c -1.78559,-1.570824 -3.6117,-3.093675 -5.47442,-4.574173 z m -150.574,139.161375 -47.071121,58.49617 c 1.490171,1.85186 3.022172,3.66765 4.602539,5.44148 l 50.737732,-63.05322 c -2.75682,-0.29542 -5.51233,-0.58822 -8.26915,-0.88364 z" />
    <path
       id="path350"
       style="fill:#db0482;fill-opacity:1;stroke-width:4.64439;paint-order:markers fill stroke"
       d="m 172.82254,-0.03581245 c -2.38428,0.14378849 -4.75156,0.34639955 -7.10446,0.60783317 L 150.60852,140.18594 l 4.82215,44.55679 c 2.15682,-1.73619 4.31627,-3.47158 6.47309,-5.20763 L 157.6437,140.18594 Z M 164.13379,200.13162 c -2.15813,1.73984 -4.31235,3.48361 -6.47048,5.22279 l 8.05477,74.44362 c 2.3529,0.26143 4.72018,0.46535 7.10446,0.60914 z" />
    <path
       id="path351"
       style="fill:#ffffff;fill-opacity:1;stroke-width:4.64439;paint-order:markers fill stroke"
       d="m 76.079028,46.986292 c -1.579059,1.773174 -3.108446,3.588438 -4.598618,5.439911 l 88.15672,109.558207 34.93538,28.10921 c 0.30065,-2.75068 0.6013,-5.50122 0.90194,-8.25202 L 164.62006,157.01586 Z M 211.58399,194.81289 c -0.30064,2.75342 -0.58822,5.50723 -0.8758,8.26051 l 58.42257,47.01034 c 1.86141,-1.47906 3.68622,-2.99982 5.46919,-4.56907 z" />
    <path
       id="path600"
       style="fill:#ffffff;fill-opacity:1;stroke-width:4.64439;paint-order:markers fill stroke"
       d="m 40.795946,148.76044 c 0.143789,2.38218 0.339864,4.74868 0.601298,7.09779 l 140.038226,15.16015 44.55613,-4.82346 c -1.73592,-2.1563 -3.46922,-4.31339 -5.20514,-6.46943 l -39.35099,4.25993 z m 281.297344,0 -80.69802,8.73515 c 1.73853,2.15683 3.48099,4.31039 5.21822,6.46774 l 74.86805,-8.1051 c 0.26143,-2.34911 0.45751,-4.71561 0.6013,-7.09779 z" />
    <path
       id="path601"
       style="fill:#ffffff;fill-opacity:1;stroke-width:4.64439;paint-order:markers fill stroke"
       d="m 286.80498,46.986292 -50.73903,63.056748 c 2.7542,0.29542 5.5084,0.58691 8.26261,0.88233 L 291.4036,52.422543 c -1.48886,-1.850558 -3.01956,-3.664254 -4.59862,-5.436382 z M 223.0923,126.16434 198.26787,157.01586 88.289285,245.51127 c 1.782977,1.56899 3.607784,3.09185 5.467884,4.57078 l 109.485781,-88.09764 28.1015,-34.92531 c -2.75028,-0.29804 -5.50056,-0.59738 -8.25215,-0.89411 z" />
    <path
       id="path602"
       style="fill:#db0482;fill-opacity:1;stroke-width:4.64439;paint-order:markers fill stroke"
       d="M 190.06409,-0.03581245 198.75283,80.22627 c 2.15683,-1.738272 4.30974,-3.479943 6.46656,-5.217693 L 197.1607,0.57202072 C 194.81041,0.3105871 192.44705,0.10797604 190.06409,-0.03581245 Z M 207.45073,95.623795 c -2.15683,1.735135 -4.31104,3.470923 -6.46787,5.206055 l 4.26006,39.35596 -15.17883,140.22162 c 2.38296,-0.14379 4.74894,-0.34901 7.09923,-0.60914 l 15.11347,-139.61222 z" />
    <path
       id="path678"
       style="fill:#ffffff;fill-opacity:1;stroke-width:4.64439;paint-order:markers fill stroke"
       d="m 93.758476,30.287873 c -1.861407,1.479714 -3.686214,3.002435 -5.470498,4.572474 L 151.2974,85.56213 c 0.30065,-2.755772 0.6013,-5.511674 0.88888,-8.267446 z M 168.31673,90.278 c -0.30065,2.752896 -0.58823,5.505923 -0.90195,8.258688 l 30.84525,24.819202 88.53711,110.02917 c 1.58037,-1.77291 3.11106,-3.5883 4.60123,-5.43964 L 203.23511,118.38028 Z" />
    <path
       id="path679"
       style="fill:#ffffff;fill-opacity:1;fill-rule:evenodd;stroke-width:4.64439;stroke-linecap:round;stroke-miterlimit:2.6;paint-order:fill markers stroke"
       d="M 181.43808,-11.506997 C 97.567564,-11.507389 29.303324,56.515678 29.303324,140.17614 c -0.0013,83.66098 68.262933,151.68849 152.134756,151.68823 83.87183,-2.6e-4 152.13738,-68.02751 152.13607,-151.68823 0,-83.6602 -68.26424,-151.682875 -152.13607,-151.683137 z m 0,23.112039 c 71.42759,2.62e-4 129.04495,57.434875 129.04495,128.571098 0.001,71.13687 -57.61605,128.59579 -129.04495,128.59606 -71.42628,1.3e-4 -129.025331,-57.45919 -129.022716,-128.59606 0,-71.136354 57.596436,-128.571098 129.022716,-128.571098 z" />
  </g>
</svg>
